<?xml version="1.0" standalone="no"?>
<svg viewBox="0 0 200 200" xmlns="http://www.w3.org/2000/svg">
  <path fill="#8B72B6" d="M35.2,-61.8C48.3,-53.4,63.4,-49.4,73.8,-39.8C84.1,-30.2,89.8,-15.1,90.2,0.2C90.7,15.6,85.9,31.2,76.4,42.4C67,53.7,52.9,60.5,39.4,68.6C25.9,76.6,13,85.9,0.4,85.2C-12.2,84.5,-24.3,73.9,-33.6,63.4C-42.9,52.9,-49.2,42.5,-55.8,31.9C-62.4,21.4,-69.2,10.7,-73.7,-2.6C-78.1,-15.8,-80.2,-31.6,-73.5,-42.1C-66.9,-52.5,-51.5,-57.6,-37.8,-65.6C-24.1,-73.6,-12.1,-84.5,-0.5,-83.7C11.1,-82.8,22.1,-70.1,35.2,-61.8Z" transform="translate(100 100)" />
</svg>
