<?xml version="1.0" standalone="no"?>
<svg viewBox="0 0 200 200" xmlns="http://www.w3.org/2000/svg">
  <path fill="#8B72B6" d="M43,-76.8C54.4,-67.9,61.4,-53.7,66.3,-40C71.2,-26.3,73.9,-13.2,73.8,-0.1C73.6,13,70.6,26,64.6,37.8C58.7,49.6,49.8,60.3,38.6,70C27.3,79.7,13.7,88.4,-1.4,90.7C-16.4,93,-32.7,89.1,-42.3,78.4C-51.8,67.7,-54.5,50.4,-60.2,36.2C-65.9,22,-74.7,11,-75.4,-0.5C-76.2,-11.9,-69.1,-23.8,-60.7,-33.3C-52.3,-42.9,-42.6,-50,-32.3,-59.4C-22,-68.9,-11,-80.8,2.4,-85C15.8,-89.1,31.6,-85.6,43,-76.8Z" transform="translate(100 100)" />
</svg>
