<?xml version="1.0" standalone="no"?>
<svg viewBox="0 0 200 200" xmlns="http://www.w3.org/2000/svg">
  <path fill="#8B72B6" d="M41.5,-73.1C50.6,-66.7,52.6,-49.1,57.5,-35C62.3,-21,70.1,-10.5,70.8,0.4C71.4,11.2,64.9,22.5,59.8,36.1C54.6,49.6,50.8,65.5,41.1,72.5C31.3,79.5,15.7,77.6,0.7,76.3C-14.2,75.1,-28.5,74.5,-39.9,68.5C-51.3,62.5,-59.9,51,-64.1,38.7C-68.2,26.4,-68,13.2,-69.1,-0.6C-70.1,-14.4,-72.5,-28.8,-67.3,-39.4C-62.2,-50,-49.4,-56.8,-36.9,-61.3C-24.5,-65.7,-12.2,-67.9,2,-71.4C16.2,-74.8,32.4,-79.5,41.5,-73.1Z" transform="translate(100 100)" />
</svg>
