<?xml version="1.0" standalone="no"?>
<svg viewBox="0 0 200 200" xmlns="http://www.w3.org/2000/svg">
  <path fill="#8B72B6" d="M35.1,-59.4C47.7,-53.5,61.5,-48.5,71.7,-38.8C81.9,-29,88.5,-14.5,89.2,0.4C89.9,15.3,84.8,30.7,75.3,41.7C65.9,52.8,52.2,59.7,38.9,63.3C25.6,66.9,12.8,67.3,0.7,66.2C-11.5,65,-23,62.3,-32.9,56.8C-42.9,51.3,-51.3,42.9,-59.5,32.9C-67.6,23,-75.6,11.5,-76.6,-0.6C-77.6,-12.7,-71.7,-25.3,-65.1,-38C-58.5,-50.7,-51.2,-63.4,-40.3,-70.2C-29.3,-77,-14.6,-77.9,-1.7,-74.9C11.3,-72,22.5,-65.3,35.1,-59.4Z" transform="translate(100 100)" />
</svg>
