<?xml version="1.0" standalone="no"?>
<svg viewBox="0 0 200 200" xmlns="http://www.w3.org/2000/svg">
  <path fill="#8B72B6" d="M36.4,-63.1C48.8,-56,61.4,-49.3,66.7,-38.9C72.1,-28.5,70.2,-14.2,68.2,-1.1C66.2,11.9,64.1,23.9,58.8,34.4C53.5,44.9,45,54,34.6,63.8C24.3,73.5,12.1,84,0.5,83.2C-11.2,82.4,-22.4,70.3,-33.8,61.1C-45.1,51.9,-56.5,45.6,-64.2,35.9C-72,26.2,-76,13.1,-74.8,0.7C-73.6,-11.7,-67.2,-23.4,-59.9,-33.9C-52.6,-44.3,-44.4,-53.4,-34.2,-61.8C-24.1,-70.3,-12,-78,0,-78C12,-78,24.1,-70.3,36.4,-63.1Z" transform="translate(100 100)" />
</svg>
