<?xml version="1.0" standalone="no"?>
<svg viewBox="0 0 200 200" xmlns="http://www.w3.org/2000/svg">
  <path fill="#8B72B6" d="M45.8,-76.2C58.5,-71.9,67.5,-58,71.8,-43.7C76.1,-29.5,75.7,-14.7,72.5,-1.8C69.3,11,63.4,22.1,58.1,34.8C52.9,47.5,48.4,61.8,38.9,67.2C29.3,72.6,14.6,69.1,0.7,67.8C-13.2,66.6,-26.4,67.7,-35.7,62.1C-45,56.5,-50.4,44.3,-57.3,32.9C-64.2,21.4,-72.7,10.7,-76.3,-2.1C-79.9,-14.9,-78.7,-29.8,-72.3,-42.2C-66,-54.7,-54.5,-64.6,-41.6,-68.9C-28.7,-73.1,-14.4,-71.7,1.1,-73.5C16.5,-75.4,33,-80.6,45.8,-76.2Z" transform="translate(100 100)" />
</svg>
