<?xml version="1.0" standalone="no"?>
<svg viewBox="0 0 200 200" xmlns="http://www.w3.org/2000/svg">
  <path fill="#8B72B6" d="M30.5,-52.9C39.8,-47.5,47.6,-39.8,56.1,-30.6C64.6,-21.4,73.7,-10.7,74.4,0.4C75.2,11.5,67.5,23,59.1,32.5C50.8,41.9,41.7,49.3,31.8,56.4C21.8,63.5,10.9,70.3,-1,71.9C-12.8,73.6,-25.6,70.1,-37.1,63.9C-48.6,57.6,-58.8,48.7,-67.4,37.6C-75.9,26.5,-82.9,13.3,-81.5,0.8C-80.1,-11.6,-70.2,-23.2,-61.8,-34.6C-53.4,-46,-46.5,-57.2,-36.4,-62.1C-26.3,-67,-13.2,-65.6,-1.3,-63.4C10.6,-61.2,21.3,-58.2,30.5,-52.9Z" transform="translate(100 100)" />
</svg>
