<?xml version="1.0" standalone="no"?>
<svg viewBox="0 0 200 200" xmlns="http://www.w3.org/2000/svg">
  <path fill="#8B72B6" d="M41.7,-73.1C52,-66.4,56.9,-51,60.8,-37.4C64.6,-23.8,67.4,-11.9,66.4,-0.6C65.5,10.8,60.8,21.6,56.1,33.8C51.5,46.1,47,59.8,37.6,70C28.3,80.3,14.1,87.1,0.4,86.4C-13.3,85.7,-26.6,77.4,-38.3,68.5C-49.9,59.6,-59.9,49.9,-69.8,38.4C-79.7,26.9,-89.5,13.4,-91.7,-1.3C-93.9,-16,-88.5,-32,-78.9,-44.1C-69.4,-56.2,-55.6,-64.4,-41.8,-69.1C-27.9,-73.8,-14,-75.1,0.9,-76.6C15.7,-78.1,31.4,-79.9,41.7,-73.1Z" transform="translate(100 100)" />
</svg>
